#
# Object file
# Created by SpaceClaim
#

mtllib L23FacL2l_i.mtl

# Konstruktion2\L2_PDl_i
v -0.0266923997551203 0.0151460003107786 0.116981998085976
v -0.0271166004240513 0.0152351995930076 0.115431003272533
v -0.0260979030281305 0.0149385361000896 0.115993276238441
v -0.0259744841605425 0.0148756047710776 0.114805981516838
v -0.0254599526524544 0.0147473551332951 0.116976022720337
v -0.0270735993981361 0.0152112999930978 0.114621996879578
v -0.0250903330743313 0.0145673174411058 0.115808986127377
v -0.0264082998037338 0.0150749003514647 0.11744000017643
v -0.0267337001860142 0.0151006001979113 0.11361700296402
v -0.024754723533988 0.014401120133698 0.114715158939362
v -0.0256916005164385 0.0148668000474572 0.118194997310638
v -0.0254755895584822 0.0146668422967196 0.113698445260525
v -0.0239905007183552 0.0140829002484679 0.115691997110844
v -0.0243314988911152 0.0142871933057904 0.116771697998047
v -0.0246211029589176 0.0144427893683314 0.117825448513031
v -0.0259779002517462 0.0148400003090501 0.112508997321129
v -0.0236227307468653 0.0138489250093699 0.11461528390646
v -0.024273507297039 0.0141539815813303 0.11368902772665
v -0.0249773003160954 0.0146187003701925 0.118671000003815
v -0.0248513370752335 0.0143964905291796 0.112765237689018
v -0.0231094863265753 0.0136141376569867 0.115500830113888
v -0.0232973638921976 0.0137536032125354 0.116586685180664
v -0.0235508847981691 0.0139397708699107 0.11776027828455
v -0.0239700004458427 0.0141951004043221 0.118909999728203
v -0.0253424998372793 0.0145875997841358 0.11200799793005
v -0.0231626722961664 0.0135687291622162 0.113634906709194
v -0.0224617440253496 0.0131668616086245 0.114661306142807
v -0.023816742002964 0.0138878393918276 0.112630255520344
v -0.0244849994778633 0.0142002999782562 0.111647002398968
v -0.0223642978817225 0.0131726292893291 0.116040363907814
v -0.0225342139601707 0.0133578032255173 0.117399223148823
v -0.0228014998137951 0.0135850999504328 0.118813998997211
v -0.022154800593853 0.0129082025960088 0.113387130200863
v -0.0228404682129622 0.0133274123072624 0.112603783607483
v -0.0214983969926834 0.0125435842201114 0.115354239940643
v -0.0233028996735811 0.0135714001953602 0.111562997102737
v -0.0215453039854765 0.0125077804550529 0.114189378917217
v -0.0216035414487123 0.0127042317762971 0.116710774600506
v -0.0217978004366159 0.0129249002784491 0.118247002363205
v -0.0219365991652012 0.0127055002376437 0.112167000770569
v -0.0211587995290756 0.0121576003730297 0.113096997141838
v -0.022689500823617 0.0131983999162912 0.111707001924515
v -0.0206068009138107 0.0118743004277349 0.115906000137329
v -0.020651800557971 0.0118174003437161 0.114445000886917
v -0.0215114001184702 0.0124075002968311 0.112588003277779
v -0.0209143999963999 0.0119840996339917 0.113568998873234
v -0.0209139995276928 0.0122087001800537 0.117129996418953
v -0.0211548991501331 0.0124249001964927 0.117576003074646
vn -0.292175447921187 -0.956039805778033 0.0249278438689526
vn -0.289993587223967 -0.956807504285871 0.0205698592901808
vn -0.307661742715266 -0.951383175764225 0.014639157837234
vn -0.294009066349723 -0.955719492699044 0.0126063547168307
vn -0.343410071851821 -0.939080051710137 0.0140776074250747
vn -0.307285052017457 -0.950644051535357 0.0430323609283737
vn -0.293046332582019 -0.956078135409702 0.00620047996020115
vn -0.360347718084194 -0.932299733378688 0.031092269353347
vn -0.339423940341802 -0.939885934761853 0.0374942443540818
vn -0.311428003372891 -0.949665822817765 0.0338736429548502
vn -0.327551621695557 -0.944342341865785 0.030454498584859
vn -0.401612462861266 -0.915671592115804 0.0159048755612151
vn -0.361677293354318 -0.932215522998581 0.0127966461377937
vn -0.373639064363458 -0.927245049240075 0.0247076555215223
vn -0.361385884635155 -0.932140893836492 0.0226626658664254
vn -0.325942496027215 -0.945389596367888 1.90502401989445E-05
vn -0.434588289786342 -0.899401854898069 0.0470034231359378
vn -0.398390598568503 -0.915985413597047 0.0474937158966952
vn -0.391893790008479 -0.919241335779529 0.0376114869030224
vn -0.371965661673519 -0.927596174344646 0.0347402342674554
vn -0.354408523359491 -0.93400654799432 0.0450151849255219
vn -0.370415362490325 -0.928623325578494 0.0212409609645805
vn -0.437589973820337 -0.89910322552889 0.0113315778010847
vn -0.463687633011842 -0.885345765607784 0.0340096208776616
vn -0.454892295808828 -0.890201902030405 0.0247704024033373
vn -0.39239126115333 -0.91978978340623 0.00398152131979025
vn -0.424461569093781 -0.905286004976099 0.0170183887856409
vn -0.392717496718742 -0.919296719473426 0.0258168421067014
vn -0.366956238606588 -0.930232536604589 0.00324758216178172
vn -0.464505255692583 -0.884881378116002 0.0349258371051085
vn -0.507378165982479 -0.859171399049258 0.0662714398515389
vn -0.463789185326867 -0.885313430448684 0.0334622390318442
vn -0.451910263851731 -0.890991581405005 0.0437163046341663
vn -0.436961550578277 -0.898702479908351 0.0373959345759416
vn -0.422558631886365 -0.90511768711184 0.0469699382119697
vn -0.401217847599285 -0.91551762713588 0.0291841253301319
vn -0.506773762654047 -0.862036573557926 0.00856150302045617
vn -0.465181508430621 -0.884947733761344 0.0217640236370335
vn -0.531142828368285 -0.846286292892371 0.0410707479287481
vn -0.520135767490493 -0.853856992592568 0.0196728131656723
vn -0.487653636759579 -0.872411478514305 0.0330475825385262
vn -0.439745188162695 -0.898021221984475 0.0134927518789534
vn -0.460700851888672 -0.887079619877238 0.029059818779679
vn -0.540745252023796 -0.840220381949617 0.0403023841746412
vn -0.49630642102188 -0.866831484337404 0.0477819444336909
vn -0.564487951036137 -0.824302996076021 0.0433350181160567
vn -0.504678185434054 -0.861597888246315 0.0543047706604261
vn -0.482967724184495 -0.874254143045076 0.0492125061805395
vn -0.467319412612253 -0.88331791328882 0.0369056995438725
vn -0.543367516632856 -0.83907403346738 0.0265802225164612
vn -0.574164687786299 -0.818267880728886 0.0277954432725624
vn -0.49741148038229 -0.86733458838799 0.0176785454643501
vn -0.558075721221746 -0.827978723064696 0.0547971124694008
vn -0.566743313372382 -0.822489021911453 0.0481022409336107
vn -0.551895367323072 -0.832726995860497 0.0444663231275567
vn -0.535590401353028 -0.843778000194107 0.0343745307885875
vn -0.553466381729725 -0.83194691256509 0.0392339007545915
vn -0.592119787577059 -0.804397608122282 0.0483595410115851
vn -0.525074062690883 -0.850379344496186 0.0339440590314075
vn -0.617443024960012 -0.785319149300665 0.0451436005421506
vn -0.619426912643204 -0.783522018114938 0.049025983135508
vn -0.548687387144735 -0.834501726147222 0.0504878227455913
vn -0.592092028599968 -0.805386769993142 0.0279138028292096
vn -0.558330493024452 -0.829232657976746 0.025303349657558
vn -0.619340230153181 -0.784456537392948 0.0323360519431755
vn -0.617375441709576 -0.785866151839403 0.0355240111338122
vn -0.607663545476588 -0.791630650991715 0.0637646289823488
vn -0.619046153093644 -0.783787252361781 0.0495923721466303
vn -0.585518796862074 -0.809557226427896 0.0422473154124817
vn -0.597858656140858 -0.801333412373437 0.0207313649186566
vn -0.605505762372318 -0.793745336148086 0.0577157957328797

o Konstruktion2\L2_PDl_i
g Konstruktion2\L2_PDl_i
s off

# facets

usemtl c_0
f 1//1 2//1 3//1
f 2//2 4//2 3//2
f 5//3 1//3 3//3
f 6//4 4//4 2//4
f 3//5 4//5 7//5
f 8//6 1//6 5//6
f 6//7 9//7 4//7
f 10//8 7//8 4//8
f 5//9 3//9 7//9
f 11//10 8//10 5//10
f 9//11 12//11 4//11
f 10//12 13//12 7//12
f 10//13 4//13 12//13
f 5//14 7//14 14//14
f 11//15 5//15 15//15
f 9//16 16//16 12//16
f 10//17 17//17 13//17
f 14//18 7//18 13//18
f 10//19 12//19 18//19
f 15//20 5//20 14//20
f 19//21 11//21 15//21
f 16//22 20//22 12//22
f 10//23 18//23 17//23
f 13//24 17//24 21//24
f 14//25 13//25 22//25
f 20//26 18//26 12//26
f 15//27 14//27 23//27
f 24//28 19//28 15//28
f 16//29 25//29 20//29
f 26//30 17//30 18//30
f 21//31 17//31 27//31
f 13//32 21//32 22//32
f 14//33 22//33 23//33
f 28//34 18//34 20//34
f 24//35 15//35 23//35
f 25//36 29//36 20//36
f 26//37 27//37 17//37
f 28//38 26//38 18//38
f 27//39 30//39 21//39
f 30//40 22//40 21//40
f 31//41 23//41 22//41
f 28//42 20//42 29//42
f 32//43 24//43 23//43
f 26//44 33//44 27//44
f 28//45 34//45 26//45
f 35//46 30//46 27//46
f 31//47 22//47 30//47
f 32//48 23//48 31//48
f 28//49 29//49 36//49
f 34//50 33//50 26//50
f 27//51 33//51 37//51
f 28//52 36//52 34//52
f 38//53 30//53 35//53
f 35//54 27//54 37//54
f 38//55 31//55 30//55
f 39//56 32//56 31//56
f 40//57 33//57 34//57
f 37//58 33//58 41//58
f 42//59 34//59 36//59
f 43//60 38//60 35//60
f 44//61 35//61 37//61
f 38//62 39//62 31//62
f 40//63 45//63 33//63
f 42//64 40//64 34//64
f 46//65 37//65 41//65
f 44//66 37//66 46//66
f 43//67 47//67 38//67
f 44//68 43//68 35//68
f 38//69 48//69 39//69
f 45//70 41//70 33//70
f 38//71 47//71 48//71
