#
# Object file
# Created by SpaceClaim
#

mtllib L34FacL3l_i.mtl

# Konstruktion2\L3_PDl_i
v -0.0203610006719828 0.0176988001912832 0.0824035033583641
v -0.0212423000484705 0.01788330078125 0.0816648975014687
v -0.019921999424696 0.0174693521112204 0.0813373178243637
v -0.0209154300391674 0.017678564414382 0.0803984776139259
v -0.0197228007018566 0.0175310000777245 0.0827234014868736
v -0.0215799007564783 0.0179385002702475 0.0812556967139244
v -0.0199149958789349 0.0173166282474995 0.0799325779080391
v -0.0185647681355476 0.0170149952173233 0.0818455889821053
v -0.0221293997019529 0.0179952997714281 0.0801287963986397
v -0.0210647433996201 0.0176184251904488 0.0789303258061409
v -0.0189868956804276 0.0170564334839582 0.0806973651051521
v -0.0187225006520748 0.0172055996954441 0.0829875022172928
v -0.0195905994623899 0.0170889999717474 0.0788279995322227
v -0.0186815224587917 0.0168001782149076 0.0796186029911041
v -0.0223347004503012 0.0179654005914927 0.0789322033524513
v -0.0206091217696667 0.0173402540385723 0.0775708109140396
v -0.0178739093244076 0.0165474470704794 0.080641396343708
v -0.0175710991024971 0.0167165994644165 0.0829318016767502
v -0.0220132004469633 0.0177756007760763 0.077400803565979
v -0.0193240512162447 0.0168176684528589 0.0774397477507591
v -0.0184279978275299 0.0165164954960346 0.0783884301781654
v -0.0175327192991972 0.0162207260727882 0.0794078186154366
v -0.0172648187726736 0.0164023097604513 0.0816771686077118
v -0.0200759246945381 0.0170144252479076 0.0763753801584244
v -0.016588294878602 0.0158751532435417 0.0806087478995323
v -0.0160103999078274 0.0157919004559517 0.0821371972560883
v -0.0213667992502451 0.0174786001443863 0.0761346966028214
v -0.0181676708161831 0.0162267908453941 0.0770957991480827
v -0.0189929492771626 0.0164993312209845 0.0761205479502678
v -0.0173306725919247 0.015884380787611 0.0780048966407776
v -0.0165621638298035 0.0156014375388622 0.0790399312973022
v -0.0204459000378847 0.0170632004737854 0.0753628984093666
v -0.0196959991008043 0.0166983008384705 0.0750041007995605
v -0.0157537888735533 0.0152469938620925 0.0798927024006844
v -0.0152944000437856 0.0151858003810048 0.0812062993645668
v -0.0170834008604288 0.0155218997970223 0.0765808001160622
v -0.0179539546370506 0.0159180741757154 0.0758822709321976
v -0.0187129005789757 0.0161853991448879 0.0748182982206345
v -0.0162924621254206 0.0151830315589905 0.0775986164808273
v -0.0156772378832102 0.0149457706138492 0.078644335269928
v -0.0148683004081249 0.0144279999658465 0.0789266973733902
v -0.014873799867928 0.0145442998036742 0.0794634968042374
v -0.0150407003238797 0.0148847000673413 0.0805457979440689
v -0.0169392991811037 0.0152070000767708 0.0753024965524673
v -0.0159441996365786 0.0146829001605511 0.0762284994125366
v -0.0176430009305477 0.015599500387907 0.0749797970056534
v -0.0152049995958805 0.0143819004297256 0.0774756968021393
vn -0.277112130296055 -0.956448747424975 0.0917314602084745
vn -0.27944665533538 -0.956608274432557 0.0825237911697928
vn -0.292748515575295 -0.952454343951178 0.0844335793212129
vn -0.263069300530193 -0.960807259054057 0.0874297092960143
vn -0.296183113218368 -0.949693394403434 0.10177435861139
vn -0.346717774133422 -0.933510837961292 0.0913471428604717
vn -0.26874919264333 -0.959655292299061 0.082677635524741
vn -0.310210344087466 -0.948058893779424 0.0703837790039028
vn -0.343985257066292 -0.933657103042363 0.0997925691601284
vn -0.347554600010992 -0.932925537715341 0.0941049472118291
vn -0.333651296504047 -0.936234929297969 0.110186067647386
vn -0.265688330896936 -0.961768392230027 0.0664173963090217
vn -0.330493749275946 -0.938870194664693 0.0964190814092756
vn -0.357590987919171 -0.926289816903974 0.118810186680241
vn -0.262832334749764 -0.962361005405332 0.0691408640763602
vn -0.331902085412556 -0.939824100565054 0.081065810893885
vn -0.366768970140037 -0.926581223508174 0.0832331591645508
vn -0.409689516102503 -0.906790018686834 0.0994301886030012
vn -0.408128172940184 -0.905348481480237 0.117369167731291
vn -0.384845386135275 -0.917548322965205 0.0999955188702533
vn -0.305017376960132 -0.947918578511395 0.0917320460106343
vn -0.364681002790061 -0.924531274180252 0.110678314346916
vn -0.399081304119299 -0.908055985579464 0.127155179822718
vn -0.42981947350812 -0.895144302149648 0.118202785594174
vn -0.411255029909338 -0.904219444356455 0.115136861265078
vn -0.409472547442317 -0.903527124112747 0.126376298741685
vn -0.40934083424028 -0.907029104683118 0.098682747637126
vn -0.367473071268024 -0.925819649033665 0.0884393541135823
vn -0.429894392803242 -0.895157407373865 0.117830501399398
vn -0.458617267845003 -0.882191832702417 0.106807171798225
vn -0.455620459025932 -0.878308875600572 0.144856882329618
vn -0.46629181176848 -0.878236760989946 0.106170325060998
vn -0.302992301894155 -0.950543365332644 0.0682859840302047
vn -0.424427021837773 -0.898028112801892 0.115789514859468
vn -0.403845444386542 -0.907241311122173 0.117567259224485
vn -0.45533205338302 -0.87843081015921 0.145024249437936
vn -0.493829833491338 -0.8579737916143 0.141467552664552
vn -0.472230021925892 -0.871676632571954 0.131067366723719
vn -0.350911256590106 -0.932696632355362 0.0832963504081642
vn -0.469547548511506 -0.876996775533203 0.101988996422164
vn -0.426195126077626 -0.897953235914655 0.109716455548275
vn -0.40905568978132 -0.907459697883777 0.0958662577459543
vn -0.496412626062482 -0.857661947327566 0.134128627787057
vn -0.516808912908032 -0.844776905293351 0.138782303705503
vn -0.517939897298837 -0.842170491160898 0.149957082539912
vn -0.395945966400047 -0.912734032037557 0.100714340845765
vn -0.495218965145103 -0.858596150812432 0.132554993759904
vn -0.45815582989302 -0.87737284033694 0.142513629432867
vn -0.441398541836573 -0.889322957527689 0.119465494929501
vn -0.512646214512529 -0.845482197365361 0.149511580435144
vn -0.537913328666818 -0.826409647481012 0.166422190205795
vn -0.51540440349922 -0.845289469240109 0.140868783076266
vn -0.495840896268266 -0.858465644784497 0.131066938289644
vn -0.521583020187782 -0.844099401619601 0.124287381649244
vn -0.465585142820756 -0.877948344596184 0.111522100972844
vn -0.549675757554708 -0.824168018802537 0.13639515511835
vn -0.572363728440695 -0.802600792851512 0.168023003423908
vn -0.557941419855994 -0.81486282262914 0.15716218471995
vn -0.507669621695553 -0.848092665234263 0.151691747907851
vn -0.553469126371273 -0.817778654208302 0.15782901784868
vn -0.491487615062423 -0.860452214712898 0.134394607168292
vn -0.574434757553927 -0.803620577307958 0.155623510566962
vn -0.567048230474604 -0.807958870786826 0.160183542951508
vn -0.570862806899692 -0.805686943043604 0.158063928546828
vn -0.564069975676297 -0.808594747987684 0.167330798322588
vn -0.559221997783565 -0.817397496915706 0.138318795653
vn -0.524194910372427 -0.843503080728066 0.117142002466683
vn -0.575824426456687 -0.804213803635525 0.147195067641239
vn -0.352661766295457 -0.930772563102236 0.0963956138497086
vn -0.262927686399477 -0.96268286221763 0.0641150412702811

o Konstruktion2\L3_PDl_i
g Konstruktion2\L3_PDl_i
s off

# facets

usemtl c_0
f 1//1 2//1 3//1
f 2//2 4//2 3//2
f 5//3 1//3 3//3
f 2//4 6//4 4//4
f 4//5 7//5 3//5
f 5//6 3//6 8//6
f 9//7 4//7 6//7
f 10//8 7//8 4//8
f 7//9 11//9 3//9
f 11//10 8//10 3//10
f 5//11 8//11 12//11
f 9//12 10//12 4//12
f 10//13 13//13 7//13
f 14//14 11//14 7//14
f 15//15 10//15 9//15
f 10//16 16//16 13//16
f 14//17 7//17 13//17
f 17//18 11//18 14//18
f 17//19 8//19 11//19
f 18//20 12//20 8//20
f 10//21 19//21 16//21
f 20//22 13//22 16//22
f 14//23 13//23 21//23
f 17//24 14//24 22//24
f 17//25 23//25 8//25
f 18//26 8//26 23//26
f 20//27 21//27 13//27
f 24//28 20//28 16//28
f 14//29 21//29 22//29
f 17//30 22//30 25//30
f 17//31 25//31 23//31
f 26//32 18//32 23//32
f 16//33 19//33 27//33
f 28//34 21//34 20//34
f 24//35 29//35 20//35
f 22//36 21//36 30//36
f 22//37 31//37 25//37
f 26//38 23//38 25//38
f 27//39 32//39 24//39
f 28//40 30//40 21//40
f 28//41 20//41 29//41
f 33//42 29//42 24//42
f 22//43 30//43 31//43
f 34//44 25//44 31//44
f 26//45 25//45 35//45
f 32//46 33//46 24//46
f 28//47 36//47 30//47
f 28//48 29//48 37//48
f 33//49 38//49 29//49
f 39//50 31//50 30//50
f 34//51 31//51 40//51
f 34//52 35//52 25//52
f 28//53 37//53 36//53
f 39//54 30//54 36//54
f 29//55 38//55 37//55
f 39//56 40//56 31//56
f 41//57 42//57 40//57
f 34//58 43//58 35//58
f 44//59 36//59 37//59
f 39//60 36//60 45//60
f 46//61 37//61 38//61
f 47//62 40//62 39//62
f 40//63 42//63 34//63
f 47//64 41//64 40//64
f 34//65 42//65 43//65
f 44//66 45//66 36//66
f 37//67 46//67 44//67
f 47//68 39//68 45//68
f 16//69 27//69 24//69
f 10//70 15//70 19//70
