#
# Object file
# Created by SpaceClaim
#

mtllib L45FacL4l_i_CAXp5CAYp2.mtl

# Konstruktion2\L4_PDl_i
v -0.0176217028824678 0.018821409138863 0.0433160980173472
v -0.0173244010681333 0.019203899241012 0.0445040518238306
v -0.018692497975108 0.0198220535917426 0.0438868569481077
v -0.0183577838114545 0.0201717107468539 0.0452125765649921
v -0.0191910317804425 0.0195511881007316 0.0425628646974569
v -0.0167329531790918 0.0177269777873364 0.0424767217324289
v -0.0161153692528862 0.0180226600096755 0.043914398887063
v -0.0181718911306538 0.0187316930095 0.0423106897268332
v -0.0169878714270289 0.0196062770680333 0.0457902948355002
v -0.0196163677701362 0.0206802276522659 0.0446519933795445
v -0.0201235637628539 0.0204458786250444 0.0433174944023762
v -0.0154550400450291 0.0170329386023021 0.0431170149586456
v -0.0161506835260045 0.0186790390867614 0.0451037920819338
v -0.0182218450013517 0.0206313306153696 0.0464974902997384
v -0.0195387595552938 0.0211132342329365 0.0458870541649246
v -0.0145437491840597 0.0167993735680435 0.0440388542257176
v -0.0149924034479182 0.0177940790847994 0.0451006266464234
v -0.0170574122152788 0.0202208532027567 0.0471200439082423
v -0.015422709199736 0.018743063371048 0.0462501865753319
v -0.0206678760232516 0.0211383789547632 0.0443440858074767
v -0.0208931999368525 0.0215674483028788 0.0452376593252395
v -0.0178972311842483 0.021008006620156 0.0478554499720702
v -0.015828585663592 0.019547529168888 0.0472943054592908
v -0.0194021497503904 0.0215209034832149 0.0472331912376983
v -0.013739620762801 0.0167876502970451 0.0451562645015406
v -0.0141734109004998 0.0178659700566956 0.046359181339345
v -0.0164673054038969 0.0203936794428015 0.0483619744509672
v -0.0208561187818211 0.0221202839648051 0.0469726853195658
v -0.0209042934976307 0.0219317031300665 0.0463176974828471
v -0.0144186119860604 0.0187127527373573 0.0475952236497676
v -0.0174239553762516 0.0212914537694056 0.0492847593302303
v -0.0188039911865921 0.0217012621017519 0.048585979967531
v -0.0149427554825736 0.0196453088436672 0.0487253529264651
v -0.020236113217268 0.0222840111531796 0.048359937517482
v -0.0131597199818339 0.0171189569695793 0.0464975737511632
v -0.0130812479990505 0.017721888704774 0.0476220933746116
v -0.0158954479669865 0.0206007896895529 0.0496260028207946
v -0.0133491656438135 0.0186784961085458 0.0489802348252854
v -0.0168267797694303 0.0215291898366435 0.0507245869864898
v -0.0187711743105341 0.0221517792301641 0.0499357579219632
v -0.0196422781095486 0.0222892025065948 0.0491858177325825
v -0.0143189822297709 0.0199606516349059 0.0502650520977218
v -0.0178253416534735 0.0218946775896891 0.0504334050991717
v -0.015203475800568 0.0206559170160924 0.0506749614859513
vn -0.517211495872857 -0.76842376092088 0.376851684604397
vn -0.50979160283914 -0.79136116420269 0.337431518187711
vn -0.529228294178952 -0.769827349040216 0.356767803073861
vn -0.54729347810259 -0.741750505181055 0.387654532915609
vn -0.559815698445003 -0.740219523764635 0.372399570907635
vn -0.484227600845571 -0.790923052415319 0.374118103995753
vn -0.477371692543724 -0.812419244671613 0.334800295766217
vn -0.529553288967186 -0.768847993498566 0.358393745812152
vn -0.487424526029709 -0.80107250360346 0.347419307746701
vn -0.583550517759666 -0.708734584237109 0.396439254273184
vn -0.535755713536867 -0.745900128298282 0.395725680259962
vn -0.477782801328564 -0.809907343092112 0.340255331126648
vn -0.531635959949941 -0.758716704815314 0.376446766385761
vn -0.483846712635645 -0.811973899109094 0.326482382123837
vn -0.473454225041707 -0.821502357831585 0.317765594215773
vn -0.583146154558316 -0.708820390958979 0.396880606460695
vn -0.558911916180074 -0.73291936350003 0.387874562917742
vn -0.472099208506471 -0.809357283845885 0.349375334580413
vn -0.458633526988085 -0.8202127504143 0.341915679635022
vn -0.529807662464026 -0.758817863448628 0.378813002556227
vn -0.455537513162643 -0.831069115216684 0.319076322898697
vn -0.436175418225918 -0.840275998574468 0.322005047716844
vn -0.579486085754841 -0.702455443459939 0.413221764153381
vn -0.557161793591435 -0.730652797897561 0.394610218679701
vn -0.46857584159171 -0.816052686733912 0.338370644635414
vn -0.488185898681807 -0.801663605094906 0.344978249451289
vn -0.447509133601949 -0.842281856940345 0.300494340731996
vn -0.529806563210299 -0.758859446807981 0.378731231309983
vn -0.452461718043055 -0.843064780774827 0.290723526950639
vn -0.581874137594092 -0.701563537403436 0.411377066673763
vn -0.549809875303889 -0.73346084926682 0.39968022669519
vn -0.469861422068586 -0.815961328330835 0.336804623959151
vn -0.42506773360496 -0.84093841608625 0.334873113579296
vn -0.488279800889172 -0.802181628301472 0.343638576500412
vn -0.408337919627541 -0.868773250755869 0.280166347310542
vn -0.530032015908908 -0.758777281876075 0.378580372735162
vn -0.424914619235043 -0.859076438409991 0.285368602563672
vn -0.580277344206451 -0.699234495724632 0.417551582190067
vn -0.550783848204236 -0.735479654188677 0.394597048686173
vn -0.46714204224842 -0.824913605781764 0.318270098124384
vn -0.416156442853978 -0.858893912132029 0.29852146116094
vn -0.478708521014392 -0.804627048583716 0.351302525746218
vn -0.418271815292129 -0.856686283166418 0.30188955060872
vn -0.408517024492521 -0.867141165888091 0.284921110348144
vn -0.529957536773016 -0.758192841961434 0.379853423857048
vn -0.574526958469476 -0.701510525921092 0.421665455087
vn -0.552304515907924 -0.734763576459092 0.393804784654475
vn -0.449185885670978 -0.826757721051399 0.338679362813674
vn -0.410142753240736 -0.859092622380744 0.30617444069531
vn -0.399669582840959 -0.868725083251644 0.292542226492446
vn -0.478655804629351 -0.80583964810546 0.348584397579549
vn -0.52294417798678 -0.760470506263662 0.384985708582567
vn -0.575351721739728 -0.70343645667005 0.417309894105825
vn -0.54927789443426 -0.730346026049969 0.406064621604595
vn -0.448666697139848 -0.833042202710882 0.323633872424105
vn -0.407278160310645 -0.863302953435693 0.298047832944959
vn -0.399674827337333 -0.868622544438667 0.292839388890513
vn -0.471907153440543 -0.806425542791661 0.356344611948628
vn -0.52446544147966 -0.767041760807588 0.36957128929442
vn -0.405202506830248 -0.860041143766673 0.310064766600457
vn -0.438748059142359 -0.834517063549496 0.333288780554552
vn -0.394861515148384 -0.868553449157063 0.29949839701089
vn -0.399025620820936 -0.861808942314152 0.313151562148155
vn -0.47137031994616 -0.808026416513116 0.353416654518187
vn -0.54637823943114 -0.747657138670759 0.377464730101743

o Konstruktion2\L4_PDl_i
g Konstruktion2\L4_PDl_i
s off

# facets

usemtl c_0
f 1//1 2//1 3//1
f 2//2 4//2 3//2
f 5//3 1//3 3//3
f 1//4 6//4 7//4
f 1//5 8//5 6//5
f 9//6 4//6 2//6
f 10//7 3//7 4//7
f 5//8 8//8 1//8
f 11//9 5//9 3//9
f 12//10 7//10 6//10
f 13//11 2//11 7//11
f 9//12 14//12 4//12
f 13//13 9//13 2//13
f 11//14 3//14 10//14
f 15//15 10//15 4//15
f 12//16 16//16 7//16
f 17//17 13//17 7//17
f 18//18 14//18 9//18
f 15//19 4//19 14//19
f 13//20 19//20 9//20
f 20//21 11//21 10//21
f 15//22 21//22 10//22
f 17//23 7//23 16//23
f 17//24 19//24 13//24
f 18//25 22//25 14//25
f 18//26 9//26 23//26
f 15//27 14//27 24//27
f 9//28 19//28 23//28
f 10//29 21//29 20//29
f 17//30 16//30 25//30
f 17//31 26//31 19//31
f 18//32 27//32 22//32
f 24//33 14//33 22//33
f 18//34 23//34 27//34
f 28//35 29//35 24//35
f 30//36 23//36 19//36
f 15//37 29//37 21//37
f 17//38 25//38 26//38
f 26//39 30//39 19//39
f 22//40 27//40 31//40
f 32//41 24//41 22//41
f 33//42 27//42 23//42
f 24//43 29//43 15//43
f 34//44 28//44 24//44
f 33//45 23//45 30//45
f 35//46 26//46 25//46
f 26//47 36//47 30//47
f 37//48 31//48 27//48
f 32//49 22//49 31//49
f 34//50 24//50 32//50
f 37//51 27//51 33//51
f 33//52 30//52 38//52
f 35//53 36//53 26//53
f 30//54 36//54 38//54
f 39//55 31//55 37//55
f 40//56 32//56 31//56
f 41//57 34//57 32//57
f 37//58 33//58 42//58
f 33//59 38//59 42//59
f 39//60 43//60 31//60
f 44//61 39//61 37//61
f 41//62 32//62 40//62
f 40//63 31//63 43//63
f 44//64 37//64 42//64
f 1//65 7//65 2//65
