#
# Object file
# Created by SpaceClaim
#

mtllib L45FacL4l_i_CAXm5CAYp2.mtl

# Konstruktion2\L4_PDl_i
v -0.0171941679308769 0.0188213140535173 0.04279521570805
v -0.0171076823917116 0.0192038007283942 0.044016749779799
v -0.0183478420222626 0.0198219155350173 0.0431713672395225
v -0.0182484341268143 0.0201715689653705 0.044535070561007
v -0.0186088835230852 0.0195510481709633 0.0417809184792282
v -0.0161731253065518 0.017726922538722 0.0421229153750187
v -0.0158145843809877 0.0180226093910149 0.0436459948783764
v -0.0175614070836038 0.0187315906583069 0.0417095421659572
v -0.0169996334318753 0.0196061753427215 0.0453418917692147
v -0.0193905711798721 0.0206800494099253 0.0437644557924713
v -0.0196583200929358 0.020445698334533 0.0423621559476923
v -0.0150257876462233 0.0170329195636267 0.0429753846987265
v -0.0160559214174048 0.0186789736986793 0.0448111897518652
v -0.0183376997788831 0.0206311788062133 0.0458240715411957
v -0.0195286234356494 0.021113044545424 0.0449942320586304
v -0.0142884087516857 0.0167993750441545 0.0440414619080061
v -0.0149146571163451 0.0177940531727506 0.0450092009188807
v -0.0172990480630719 0.0202207339417016 0.0466393666052348
v -0.0155380782408622 0.0187430096943056 0.0460665796908684
v -0.0203726533428064 0.021138168420423 0.0432786359773617
v -0.0207497367270886 0.02156721990365 0.0441195093026722
v -0.0182538381693074 0.0210078503745691 0.0472177713562733
v -0.0161191264359599 0.0195474497620508 0.0470243606366102
v -0.019627857762742 0.0215207030925799 0.046343642497441
v -0.0136905326854716 0.0167876664081885 0.0452815315813575
v -0.0143266551831417 0.0178659576758152 0.0463908522817903
v -0.0169335714085022 0.0203935661089258 0.0479649013229911
v -0.0210145226466179 0.0221200370376413 0.0458346183707284
v -0.0209482213413879 0.0219314620336521 0.0451812148158569
v -0.0147827976753043 0.0187127179082083 0.0475655421172214
v -0.0180359595102985 0.0212912973355443 0.04870755128245
v -0.0192737022692126 0.0217010666479739 0.0477797494295936
v -0.0154952562576341 0.019645243276298 0.0485874905918206
v -0.0206448359850237 0.0222837695136724 0.0473084587967737
v -0.0133523695679185 0.0171189775267442 0.0467031638048258
v -0.0134703819420336 0.017721899106932 0.0478242291733957
v -0.016589905344261 0.0206006814093907 0.0493090293640609
v -0.0139701020707926 0.0186784818961703 0.0491152190841274
v -0.0176978882287108 0.0215290373133423 0.0502292044407946
v -0.019475786431465 0.022151569497565 0.0491147222122731
v -0.0202034353424296 0.0222889716669092 0.048224910445975
v -0.0151483366703403 0.0199605897445324 0.0502121170380509
v -0.0186307294907102 0.0218944943864905 0.0497690497570309
v -0.0160905975042645 0.0206558203327848 0.0504622119872744
vn -0.574766208663221 -0.768445669916458 0.281309540836339
vn -0.560612985983107 -0.791382370899244 0.243776584144162
vn -0.583112865604535 -0.769849438123703 0.25944407603005
vn -0.606268020127302 -0.74177356170355 0.286724730235379
vn -0.61595105788152 -0.740242832666515 0.269527072815495
vn -0.541807932809478 -0.790943807117055 0.284344962902281
vn -0.528227952160367 -0.812439317446421 0.246814882095182
vn -0.583715299759112 -0.76887011219469 0.260988887504536
vn -0.540319731863859 -0.801093062619835 0.257496587124842
vn -0.643500857210354 -0.708758975531571 0.28908019886007
vn -0.596306932760353 -0.745922884019764 0.296676748393898
vn -0.529580161413515 -0.809927492088417 0.252115668288589
vn -0.588901564140422 -0.758739100350551 0.278406044029583
vn -0.533160227449622 -0.811994097481739 0.237498963199175
vn -0.521411632404566 -0.821522102908491 0.230719188681862
vn -0.643179274148714 -0.708844773519033 0.289585062391491
vn -0.617748469455495 -0.732942818144958 0.284923943913319
vn -0.525566606616683 -0.809377343341897 0.262084066845425
vn -0.511009758084997 -0.820232266310884 0.257075974070748
vn -0.587511931598797 -0.758840223720344 0.281053811739157
vn -0.503994381531847 -0.831088265175152 0.235121157858002
vn -0.485434681072291 -0.84029452265485 0.241367532216949
vn -0.642412648246419 -0.702479887790799 0.306313559318633
vn -0.617194649977316 -0.730676269781161 0.291861187584211
vn -0.520185585473682 -0.81607250073265 0.251858353471473
vn -0.540645631247409 -0.801684162192195 0.254960399872783
vn -0.492860845624969 -0.842300521574553 0.218215531539523
vn -0.587496648140859 -0.758881806109535 0.280973473443999
vn -0.496041477405971 -0.843083502595068 0.207733146957661
vn -0.644444123538323 -0.701588042006738 0.304082210841204
vn -0.610834721757964 -0.73348412864622 0.298130803036125
vn -0.521179701708298 -0.815981168241092 0.250092885950706
vn -0.476730239752308 -0.840956708727049 0.255968928881369
vn -0.540505456711075 -0.802202173315108 0.253624770860556
vn -0.450753870674109 -0.868790349729107 0.204998234845778
vn -0.587692482308319 -0.758799647133596 0.28078575773749
vn -0.467982439458001 -0.859094161163333 0.207242994125273
vn -0.643943865085866 -0.699259016386973 0.310440214243902
vn -0.610911141548491 -0.735502908750343 0.292955710563397
vn -0.515282830888779 -0.824933141681593 0.2323121089108
vn -0.461641295813592 -0.858911486695351 0.221716873562502
vn -0.532410330029707 -0.804647355111493 0.262834309765177
vn -0.464309471973407 -0.856703968176815 0.224666475349295
vn -0.451755968412987 -0.86715832519504 0.209649669802216
vn -0.587840218435764 -0.758215219204097 0.282052404628425
vn -0.638995126315635 -0.701534897705706 0.315490120044844
vn -0.612271157120888 -0.734786873763067 0.291911425441602
vn -0.501143434728313 -0.826776878337897 0.255529355015333
vn -0.457047886521719 -0.859110079470234 0.230297852310171
vn -0.444366275930767 -0.868742028231364 0.218691337733978
vn -0.531886373469189 -0.80585992183374 0.260166623723939
vn -0.581824539310943 -0.760492703240741 0.28832456324982
vn -0.639050955972019 -0.703460806855815 0.311057500936747
vn -0.611419572007834 -0.730369360139651 0.304510598723515
vn -0.498019288724199 -0.833061170701944 0.240802562127877
vn -0.452815493076712 -0.863320220288928 0.222792114918755
vn -0.444423046100706 -0.868639492986545 0.218983075415996
vn -0.526587775702522 -0.80644567524362 0.268980830844007
vn -0.580645772266028 -0.767063833758192 0.272880124028434
vn -0.452858207858613 -0.860058477014642 0.234986935148192
vn -0.489927841912784 -0.834535803937235 0.252033136046663
vn -0.44083918599264 -0.868570309766536 0.226376741485095
vn -0.447311116256418 -0.861826100447287 0.23909943090953
vn -0.525550606601965 -0.808046497287801 0.266190567303243
vn -0.603597035573276 -0.747680047797905 0.27684863151563

o Konstruktion2\L4_PDl_i
g Konstruktion2\L4_PDl_i
s off

# facets

usemtl c_0
f 1//1 2//1 3//1
f 2//2 4//2 3//2
f 5//3 1//3 3//3
f 1//4 6//4 7//4
f 1//5 8//5 6//5
f 9//6 4//6 2//6
f 10//7 3//7 4//7
f 5//8 8//8 1//8
f 11//9 5//9 3//9
f 12//10 7//10 6//10
f 13//11 2//11 7//11
f 9//12 14//12 4//12
f 13//13 9//13 2//13
f 11//14 3//14 10//14
f 15//15 10//15 4//15
f 12//16 16//16 7//16
f 17//17 13//17 7//17
f 18//18 14//18 9//18
f 15//19 4//19 14//19
f 13//20 19//20 9//20
f 20//21 11//21 10//21
f 15//22 21//22 10//22
f 17//23 7//23 16//23
f 17//24 19//24 13//24
f 18//25 22//25 14//25
f 18//26 9//26 23//26
f 15//27 14//27 24//27
f 9//28 19//28 23//28
f 10//29 21//29 20//29
f 17//30 16//30 25//30
f 17//31 26//31 19//31
f 18//32 27//32 22//32
f 24//33 14//33 22//33
f 18//34 23//34 27//34
f 28//35 29//35 24//35
f 30//36 23//36 19//36
f 15//37 29//37 21//37
f 17//38 25//38 26//38
f 26//39 30//39 19//39
f 22//40 27//40 31//40
f 32//41 24//41 22//41
f 33//42 27//42 23//42
f 24//43 29//43 15//43
f 34//44 28//44 24//44
f 33//45 23//45 30//45
f 35//46 26//46 25//46
f 26//47 36//47 30//47
f 37//48 31//48 27//48
f 32//49 22//49 31//49
f 34//50 24//50 32//50
f 37//51 27//51 33//51
f 33//52 30//52 38//52
f 35//53 36//53 26//53
f 30//54 36//54 38//54
f 39//55 31//55 37//55
f 40//56 32//56 31//56
f 41//57 34//57 32//57
f 37//58 33//58 42//58
f 33//59 38//59 42//59
f 39//60 43//60 31//60
f 44//61 39//61 37//61
f 41//62 32//62 40//62
f 40//63 31//63 43//63
f 44//64 37//64 42//64
f 1//65 7//65 2//65
