#
# Object file
# Created by SpaceClaim
#

mtllib L45FacL4l_i_CAXm5CAYp2.mtl

# Konstruktion2\L4_PDl_i
v -0.0177194289483118 0.0184238779345379 0.0429818939700293
v -0.0173960408893867 0.0187983628104477 0.0441655757407964
v -0.0187185787888025 0.0195022318576417 0.0435409195699065
v -0.0183600738263204 0.0198429414448825 0.0448627430714002
v -0.0192350901529533 0.0192514186609748 0.0422198713875355
v -0.0169084531354174 0.0172614691252187 0.0421552546550581
v -0.0162714215684605 0.0175301249405559 0.0435897470109309
v -0.0182748783636376 0.0183609202466949 0.0419773472068073
v -0.0170321108459649 0.0191910946293058 0.0454473315061591
v -0.0195808839259231 0.0204305395655289 0.0442959735580457
v -0.0201035272504864 0.0202166317299122 0.0429640042810716
v -0.0156810999347486 0.0164883686555361 0.0428038281425645
v -0.0162610057265118 0.0182007448115114 0.0447716510940286
v -0.0181923187835788 0.020306569358123 0.0461424463546129
v -0.0194731724918731 0.0208710724199616 0.0455261044163852
v -0.014787691356714 0.0162030325983175 0.0437285960810095
v -0.0151663944370747 0.0172381699529583 0.0447789127098728
v -0.0170586634963619 0.0198239518146517 0.0467700405001459
v -0.0155299058497468 0.0182274240333423 0.045917533833446
v -0.020598478567905 0.0209564884322406 0.0439825118705924
v -0.0207933842546255 0.0214100974219296 0.0448711038247182
v -0.0178420177365696 0.0206752907370233 0.047496199336409
v -0.015879035382152 0.0190696412778453 0.0469523593502896
v -0.0193083005023526 0.0212835202759766 0.0468676130701978
v -0.0139858436869928 0.0161485796518003 0.0448463799906503
v -0.014343907173728 0.0172676955382397 0.046036895206209
v -0.016457577155122 0.0199697356537962 0.048010173038893
v -0.0207176606827527 0.0219785936878921 0.046599801432281
v -0.0207789571688093 0.0217864044846644 0.0459469625151787
v -0.0145297549195828 0.0181432295078377 0.0472632173324158
v -0.0173497974461473 0.0209415809770725 0.0489224062680735
v -0.0186986199414552 0.021437513635603 0.0482185149560293
v -0.0149880199109928 0.0191223360716611 0.0483825577688906
v -0.0200873164576016 0.0221148807296419 0.0479853605804169
v -0.0133839909377391 0.0164542808016401 0.0461840943119303
v -0.0132637632277156 0.0170630192348903 0.0473017757202635
v -0.0158723282373836 0.0201512253764823 0.0492720084033654
v -0.0134646660045014 0.0180510506795054 0.0486489422757036
v -0.0167371139054264 0.0211538609218241 0.0503596943139306
v -0.0186343436337312 0.0218998910445936 0.0495631408685189
v -0.0194942120402803 0.0220884910119471 0.0488113605489149
v -0.0143434206703826 0.0194113286471852 0.0499188464120705
v -0.0177082601558463 0.0215839157417503 0.0500640224729549
v -0.0151777954054344 0.0201704092187257 0.0503205478198767
vn -0.568735721903022 -0.726699157635158 0.385289518315512
vn -0.562927726432647 -0.750535870505424 0.346133329654969
vn -0.580828433131457 -0.727498518732583 0.365218067061247
vn -0.596905985260161 -0.697898275286026 0.395779284593556
vn -0.609299031532962 -0.695680983413277 0.380503166202506
vn -0.537379964998188 -0.751445038730154 0.382822578992389
vn -0.532035365023009 -0.773804073153316 0.343752275245084
vn -0.581084607699762 -0.726480846357924 0.366832739227958
vn -0.541278351678299 -0.761650683628833 0.35623865895233
vn -0.630800817791434 -0.662367844516996 0.404177147824524
vn -0.585678113583297 -0.702741048165969 0.403901184068709
vn -0.532270463477873 -0.771208492439996 0.349178485731121
vn -0.582457899919386 -0.716027346071977 0.384769586244314
vn -0.538467597199104 -0.773007850791352 0.335427353359201
vn -0.528759078168822 -0.78332677670636 0.326822579007146
vn -0.630403149329799 -0.662476302581164 0.404619596452595
vn -0.607888848415633 -0.68828636317796 0.39589522633542
vn -0.526558946927155 -0.770948211246245 0.358293917039044
vn -0.513875386259838 -0.782788295823849 0.350962350284895
vn -0.580639984532469 -0.71622744061733 0.387137522940987
vn -0.511542927233536 -0.794088822512123 0.328248039687452
vn -0.492859420463503 -0.804573129107036 0.331287898329071
vn -0.626307261189553 -0.656194592304144 0.420889381681267
vn -0.605984233990497 -0.686069860731021 0.402605581619863
vn -0.52350911662008 -0.7779939116796 0.347366777635885
vn -0.542079556852752 -0.76221545248589 0.353804123822849
vn -0.5043126829724 -0.806036401510425 0.309796767628883
vn -0.580641782196354 -0.716269920206535 0.387056226116008
vn -0.509311208192151 -0.806586638891902 0.300033476750373
vn -0.628628966234809 -0.655161264001833 0.419033818399037
vn -0.598841091407582 -0.689320013766695 0.407709781416217
vn -0.524785966392825 -0.777831932330122 0.34579932695819
vn -0.481818689974578 -0.805853506363763 0.344166930823416
vn -0.542209416707728 -0.762740852560388 0.352470339559115
vn -0.467065929673597 -0.835388940878231 0.289783945028854
vn -0.580861102480678 -0.716174136190901 0.386904363216736
vn -0.482933765358771 -0.824515977612151 0.294870108587966
vn -0.626873234370624 -0.652878208674649 0.425182305214474
vn -0.599953700132044 -0.691324159153542 0.40264930729919
vn -0.522696500791622 -0.787158552041038 0.327367961182596
vn -0.474178693696441 -0.824788520832867 0.30802347694075
vn -0.532826207107537 -0.765752793599389 0.360165090082488
vn -0.476135768989656 -0.822402678999203 0.311365642073051
vn -0.467130412228672 -0.833694899189411 0.294519936569035
vn -0.580746073428541 -0.715581895193181 0.388170773589494
vn -0.621291572488365 -0.655498167606291 0.429323810450493
vn -0.601421773916301 -0.690514076087613 0.401848429864097
vn -0.504901963564816 -0.790004174551089 0.347803696616706
vn -0.468189977651777 -0.825314447293966 0.315680547253524
vn -0.458410035311151 -0.835798090430199 0.302161863178101
vn -0.532858145405976 -0.766996711216984 0.357460825625459
vn -0.573904151676548 -0.71827894495897 0.393331135199148
vn -0.622248649647427 -0.657411733673663 0.42498991804529
vn -0.598093472085327 -0.686177424269645 0.414058861844055
vn -0.504822466495771 -0.796478704194699 0.332830213600657
vn -0.465625171042693 -0.829803333778831 0.307603035324751
vn -0.458408093305037 -0.835692090293215 0.302457848656301
vn -0.526162823087889 -0.767958264080868 0.365229774566754
vn -0.57588015049934 -0.724903245358677 0.377991186576241
vn -0.463325235607748 -0.826556882091312 0.319583239104484
vn -0.495025137349105 -0.798523916616886 0.342504989720336
vn -0.453598857530415 -0.835879436358568 0.309117525093589
vn -0.457283497889108 -0.828710786048601 0.322692168552339
vn -0.52573860263802 -0.769625201759556 0.36232025959472
vn -0.59640348141177 -0.703968400047912 0.38565707447667

o Konstruktion2\L4_PDl_i
g Konstruktion2\L4_PDl_i
s off

# facets

usemtl c_0
f 1//1 2//1 3//1
f 2//2 4//2 3//2
f 5//3 1//3 3//3
f 1//4 6//4 7//4
f 1//5 8//5 6//5
f 9//6 4//6 2//6
f 10//7 3//7 4//7
f 5//8 8//8 1//8
f 11//9 5//9 3//9
f 12//10 7//10 6//10
f 13//11 2//11 7//11
f 9//12 14//12 4//12
f 13//13 9//13 2//13
f 11//14 3//14 10//14
f 15//15 10//15 4//15
f 12//16 16//16 7//16
f 17//17 13//17 7//17
f 18//18 14//18 9//18
f 15//19 4//19 14//19
f 13//20 19//20 9//20
f 20//21 11//21 10//21
f 15//22 21//22 10//22
f 17//23 7//23 16//23
f 17//24 19//24 13//24
f 18//25 22//25 14//25
f 18//26 9//26 23//26
f 15//27 14//27 24//27
f 9//28 19//28 23//28
f 10//29 21//29 20//29
f 17//30 16//30 25//30
f 17//31 26//31 19//31
f 18//32 27//32 22//32
f 24//33 14//33 22//33
f 18//34 23//34 27//34
f 28//35 29//35 24//35
f 30//36 23//36 19//36
f 15//37 29//37 21//37
f 17//38 25//38 26//38
f 26//39 30//39 19//39
f 22//40 27//40 31//40
f 32//41 24//41 22//41
f 33//42 27//42 23//42
f 24//43 29//43 15//43
f 34//44 28//44 24//44
f 33//45 23//45 30//45
f 35//46 26//46 25//46
f 26//47 36//47 30//47
f 37//48 31//48 27//48
f 32//49 22//49 31//49
f 34//50 24//50 32//50
f 37//51 27//51 33//51
f 33//52 30//52 38//52
f 35//53 36//53 26//53
f 30//54 36//54 38//54
f 39//55 31//55 37//55
f 40//56 32//56 31//56
f 41//57 34//57 32//57
f 37//58 33//58 42//58
f 33//59 38//59 42//59
f 39//60 43//60 31//60
f 44//61 39//61 37//61
f 41//62 32//62 40//62
f 40//63 31//63 43//63
f 44//64 37//64 42//64
f 1//65 7//65 2//65
