#
# Object file
# Created by SpaceClaim
#

mtllib L45FacL4l_CAYm2.mtl

# Konstruktion2\L4_PDl_i
v -0.0171400438198808 0.0184239047489328 0.0429413857502717
v -0.016921057368 0.0187983879408364 0.0441487500557989
v -0.0181841321867118 0.0195022388493793 0.0434112072680914
v -0.0179422017333263 0.0198429465127471 0.0447592481220384
v -0.0185835368790186 0.0192514249619552 0.0420501680200521
v -0.0162600879233851 0.0172615142423835 0.0421885680454819
v -0.0157505092578655 0.0175301720659232 0.0436731238851085
v -0.017605826496464 0.0183609438484985 0.0418922507035996
v -0.0166702312274818 0.0191911181632514 0.0454573487031021
v -0.0191089790382913 0.0204305278315524 0.0440882373573281
v -0.0195135411473478 0.0202166192687053 0.042715784302281
v -0.0150939189533009 0.0164884301971004 0.0429416409345526
v -0.0158431541597653 0.0182007850935755 0.044851441266811
v -0.0178866264060941 0.0203065696012172 0.0460487046370891
v -0.0191088979222833 0.0208710551636331 0.0453230768370213
v -0.0142845040565222 0.0162031034086059 0.043940754262194
v -0.0147533247505943 0.017238228273306 0.0449540726022056
v -0.0168119752608488 0.0198239670588844 0.0467727130052487
v -0.0152147070507537 0.0182274695905625 0.0460566832474827
v -0.0200953903666888 0.0209564617497067 0.0436872816238234
v -0.0203670079676313 0.0214100622455102 0.044555507096984
v -0.0176556519627605 0.0206752887312055 0.0474278385770033
v -0.0156527133193946 0.0190696749256107 0.0470571460653295
v -0.0190615805015806 0.0212834977804131 0.0466738520310027
v -0.0135831280198906 0.0161486570726803 0.0451241700510091
v -0.0140436081972807 0.0172677599779433 0.0462789527145235
v -0.0163212633792502 0.0199697534661253 0.0480605152430795
v -0.0204422481166708 0.0219785495014437 0.0462842287755539
v -0.0204464094295563 0.0217863631606845 0.045628530907154
v -0.0143356446102199 0.0181432835985987 0.0474844145334858
v -0.0172896113607141 0.0209415786365844 0.0488915193762637
v -0.0185719614277825 0.0214374931926204 0.048072751177432
v -0.0148897393283421 0.0191223759485593 0.0485595594967346
v -0.0199350642889479 0.0221148387313978 0.0477194541807109
v -0.0131001601735065 0.01645436022405 0.0465092502554583
v -0.0130778126495314 0.0170630940091208 0.047633159806976
v -0.0158482207868634 0.0201512453664749 0.049368557558176
v -0.0133953809996371 0.0180511141388124 0.0489576945765083
v -0.0168045307734119 0.0211538601707627 0.0503767379449758
v -0.0186251294263753 0.0218998636821851 0.0494178645001388
v -0.0194162070043512 0.0220884539080827 0.0485940033070178
v -0.0143814942624705 0.0194113700530717 0.0501461839152537
v -0.0177462193200539 0.0215839007038073 0.0499975521772386
v -0.015247717417371 0.0201704344576326 0.0504736395752434
vn -0.60013937005854 -0.726710839038429 0.334251541402282
vn -0.590940384551839 -0.750547223552586 0.295750447376213
vn -0.61043670909677 -0.727510280752938 0.313202515293039
vn -0.629117169245001 -0.697910484284218 0.342246319611075
vn -0.640131692452085 -0.695693306453022 0.325948216247445
vn -0.568687503341709 -0.75145618753975 0.334526713060703
vn -0.55995766041414 -0.77381490177136 0.296070796162173
vn -0.610832654065389 -0.726492622194003 0.314788720612912
vn -0.570253941016349 -0.761661739041763 0.30770414042583
vn -0.663615546751372 -0.66238066325532 0.347658256129952
vn -0.61863981098035 -0.702753119904795 0.35131586462082
vn -0.560664833698265 -0.771219357149447 0.301455879710597
vn -0.613764197111253 -0.716039251059356 0.332537668974111
vn -0.565639864783894 -0.773018736246755 0.287216950716227
vn -0.555218158973422 -0.7833374507168 0.279491027138026
vn -0.66325795163545 -0.662489117376798 0.34813367971177
vn -0.64006850742064 -0.688298754285235 0.341404643579591
vn -0.555769517779647 -0.770959035715686 0.31103441667333
vn -0.542495032796856 -0.782798867262329 0.304836140907788
vn -0.612159575322321 -0.71623932963062 0.335055035824676
vn -0.53819157510889 -0.794099220598379 0.282411501760921
vn -0.51984392790607 -0.80458323661311 0.287068120801251
vn -0.660595761391287 -0.656207436013347 0.364698561763897
vn -0.638756024235576 -0.6860822602071 0.348255471933862
vn -0.551778810480832 -0.778004620911008 0.300414637036009
vn -0.570839904064432 -0.762226506683058 0.305209037280111
vn -0.5293805070377 -0.806046570644225 0.264660546211921
vn -0.612154279939535 -0.716281808766972 0.334973891491897
vn -0.533509075170326 -0.80659683264278 0.254498754970508
vn -0.662746926193758 -0.655174135048275 0.362647714158617
vn -0.632084868617401 -0.689332325545167 0.353962800055904
vn -0.55291419187877 -0.777842653349397 0.298741866917605
vn -0.509967670617752 -0.805863507938505 0.300860402010221
vn -0.570853013890149 -0.762751900985808 0.303869008085836
vn -0.49053075830099 -0.835398375963256 0.247970015523269
vn -0.612359531546188 -0.716186027472784 0.334803491883352
vn -0.506781684979882 -0.824525704999439 0.25165390035549
vn -0.66153379009342 -0.65289108721421 0.368925836450746
vn -0.632752160142502 -0.691336459273524 0.348824603367
vn -0.549226119684779 -0.787169129143899 0.280562705252918
vn -0.499206315947138 -0.82479818167276 0.265520269711741
vn -0.56217610079716 -0.765763732701243 0.312352264874069
vn -0.501447273351062 -0.822412392004828 0.268679157222294
vn -0.491007793084992 -0.833704363450571 0.252682372739541
vn -0.612355325200721 -0.715593792091903 0.336075111274025
vn -0.656334279608929 -0.655510978527393 0.373538044167241
vn -0.634144860145982 -0.690526395704313 0.347898826077415
vn -0.533280339409231 -0.790014579013438 0.302471559895794
vn -0.493907737485044 -0.825324054658655 0.273670151193369
vn -0.482986601912911 -0.835807456003335 0.261055241015868
vn -0.561972204275431 -0.767007634794914 0.309655501788884
vn -0.60598914838947 -0.71829075946921 0.341812136846179
vn -0.656909958718029 -0.657424534679819 0.369137220201513
vn -0.631893506360104 -0.686189761384416 0.360352893690521
vn -0.531896009952476 -0.796489018466999 0.287561955164642
vn -0.490648613013025 -0.829812850831813 0.265846894175528
vn -0.483010465929502 -0.835701457591125 0.261350269911157
vn -0.555979451861039 -0.767969123175578 0.317978419011783
vn -0.606620550918606 -0.724915001457191 0.32635831208279
vn -0.48940162816538 -0.826566432262642 0.27798197676411
vn -0.522979140168991 -0.798534126477718 0.298053800174684
vn -0.478799956603397 -0.835888763744381 0.268403755939583
vn -0.483653805574357 -0.828720254872917 0.281605638290162
vn -0.555303236472173 -0.769636036576984 0.315116941413185
vn -0.627734265825338 -0.7039805406637 0.332206396500081

o Konstruktion2\L4_PDl_i
g Konstruktion2\L4_PDl_i
s off

# facets

usemtl c_0
f 1//1 2//1 3//1
f 2//2 4//2 3//2
f 5//3 1//3 3//3
f 1//4 6//4 7//4
f 1//5 8//5 6//5
f 9//6 4//6 2//6
f 10//7 3//7 4//7
f 5//8 8//8 1//8
f 11//9 5//9 3//9
f 12//10 7//10 6//10
f 13//11 2//11 7//11
f 9//12 14//12 4//12
f 13//13 9//13 2//13
f 11//14 3//14 10//14
f 15//15 10//15 4//15
f 12//16 16//16 7//16
f 17//17 13//17 7//17
f 18//18 14//18 9//18
f 15//19 4//19 14//19
f 13//20 19//20 9//20
f 20//21 11//21 10//21
f 15//22 21//22 10//22
f 17//23 7//23 16//23
f 17//24 19//24 13//24
f 18//25 22//25 14//25
f 18//26 9//26 23//26
f 15//27 14//27 24//27
f 9//28 19//28 23//28
f 10//29 21//29 20//29
f 17//30 16//30 25//30
f 17//31 26//31 19//31
f 18//32 27//32 22//32
f 24//33 14//33 22//33
f 18//34 23//34 27//34
f 28//35 29//35 24//35
f 30//36 23//36 19//36
f 15//37 29//37 21//37
f 17//38 25//38 26//38
f 26//39 30//39 19//39
f 22//40 27//40 31//40
f 32//41 24//41 22//41
f 33//42 27//42 23//42
f 24//43 29//43 15//43
f 34//44 28//44 24//44
f 33//45 23//45 30//45
f 35//46 26//46 25//46
f 26//47 36//47 30//47
f 37//48 31//48 27//48
f 32//49 22//49 31//49
f 34//50 24//50 32//50
f 37//51 27//51 33//51
f 33//52 30//52 38//52
f 35//53 36//53 26//53
f 30//54 36//54 38//54
f 39//55 31//55 37//55
f 40//56 32//56 31//56
f 41//57 34//57 32//57
f 37//58 33//58 42//58
f 33//59 38//59 42//59
f 39//60 43//60 31//60
f 44//61 39//61 37//61
f 41//62 32//62 40//62
f 40//63 31//63 43//63
f 44//64 37//64 42//64
f 1//65 7//65 2//65
